<?xml version="1.0" standalone="no"?>
<!DOCTYPE svg PUBLIC "-//W3C//DTD SVG 1.1//EN" "http://www.w3.org/Graphics/SVG/1.1/DTD/svg11.dtd" >
<svg xmlns="http://www.w3.org/2000/svg">
<metadata></metadata>
<defs>
<font id="EthnocentricRgRegular" horiz-adv-x="2324" >
<font-face units-per-em="2048" ascent="1638" descent="-410" />
<missing-glyph horiz-adv-x="784" />
<glyph horiz-adv-x="0" />
<glyph horiz-adv-x="2048" />
<glyph horiz-adv-x="784" />
<glyph unicode=" "  horiz-adv-x="784" />
<glyph unicode="&#x09;" horiz-adv-x="784" />
<glyph unicode="&#xa0;" horiz-adv-x="784" />
<glyph unicode="!" horiz-adv-x="665" d="M106 174q0 93 66 147t166 54q98 0 163.5 -54t65.5 -147q0 -91 -65 -144t-164 -53q-100 0 -166 53t-66 144zM121 913v457h424v-457l-47 -403h-332z" />
<glyph unicode="&#x22;" horiz-adv-x="913" d="M35 1370h379l-125 -549h-129zM500 1370h379l-125 -549h-129z" />
<glyph unicode="#" horiz-adv-x="1370" d="M59 326l93 292h198l53 175h-198l92 294h197l88 283h231l-86 -283h158l86 283h233l-88 -283h217l-90 -294h-215l-55 -175h217l-90 -292h-215l-101 -326h-233l100 326h-159l-99 -326h-231l98 326h-201zM584 618h157l54 175h-160z" />
<glyph unicode="$" horiz-adv-x="1386" d="M72 221l194 248h352v139h-149q-180 0 -271.5 75t-91.5 204q0 143 101.5 222t314.5 79h96v182h168v-182h494l-195 -252h-299v-133h156q176 0 269.5 -67.5t93.5 -198.5q0 -316 -416 -316h-103v-221h-168v221h-546zM395 870q0 -37 24.5 -52t78.5 -15h120v133h-120 q-54 0 -78.5 -15t-24.5 -51zM786 469h127q103 0 103 70q0 37 -24.5 53t-78.5 16h-127v-139z" />
<glyph unicode="%" horiz-adv-x="2062" d="M86 1065q0 181 108 266.5t330 85.5q221 0 329 -85.5t108 -266.5q0 -183 -108 -268.5t-329 -85.5q-222 0 -330 85.5t-108 268.5zM295 1065q0 -107 49 -141.5t180 -34.5q130 0 179 34.5t49 141.5q0 106 -49 140t-179 34q-132 0 -180.5 -34t-48.5 -140zM383 -78l1106 1524 h172l-1092 -1524h-186zM1102 324q0 181 108 266.5t330 85.5q220 0 328 -85.5t108 -266.5q0 -183 -108 -269t-328 -86q-222 0 -330 86t-108 269zM1311 324q0 -107 49 -142t180 -35q129 0 178 35t49 142q0 106 -48.5 140t-178.5 34q-132 0 -180.5 -34t-48.5 -140z" />
<glyph unicode="&#x26;" horiz-adv-x="1787" d="M86 399q0 118 60 198t155 108q-81 29 -134.5 101t-53.5 185q0 185 143 282t395 97h574l-273 -356h-319q-51 0 -84 -20.5t-33 -67.5q0 -49 33 -70.5t84 -21.5h1112l-219 -293h-226v-189h469l-270 -352h-858q-127 0 -223.5 20t-158.5 54.5t-101.5 86t-55.5 109.5t-16 129z M508 449q0 -97 131 -97h319v189h-319q-131 0 -131 -92z" />
<glyph unicode="'" horiz-adv-x="448" d="M35 1370h379l-125 -549h-129z" />
<glyph unicode="(" horiz-adv-x="718" d="M178 684q0 227 54 454.5t167 485.5h234q-126 -283 -186 -511t-60 -431q0 -422 246 -946h-230q-117 258 -171 488t-54 460z" />
<glyph unicode=")" horiz-adv-x="718" d="M86 -264q246 536 246 946q0 203 -59.5 430.5t-184.5 511.5h231q114 -259 168 -486t54 -454q0 -230 -54.5 -459.5t-171.5 -488.5h-229z" />
<glyph unicode="*" horiz-adv-x="950" d="M86 1024l55 164l246 -80v262h176v-262l250 82l51 -166l-246 -82l154 -211l-141 -100l-156 209l-153 -211l-140 104l152 209z" />
<glyph unicode="+" horiz-adv-x="1288" d="M86 582v229h442v442h230v-442h446v-229h-446v-447h-230v447h-442z" />
<glyph unicode="," horiz-adv-x="595" d="M98 -197v549h437l-201 -549h-236z" />
<glyph unicode="-" horiz-adv-x="950" d="M31 561l207 264h684l-207 -264h-684z" />
<glyph unicode="." horiz-adv-x="632" d="M86 174q0 93 65.5 147t163.5 54q100 0 166 -54t66 -147q0 -91 -66 -144t-166 -53q-99 0 -164 53t-65 144z" />
<glyph unicode="/" horiz-adv-x="966" d="M0 -78l717 1524h250l-703 -1524h-264z" />
<glyph unicode="0" horiz-adv-x="1921" d="M86 686q0 363 217 535t658 172t657.5 -172t216.5 -535q0 -364 -217 -536.5t-657 -172.5q-441 0 -658 173t-217 536zM504 686q0 -89 16 -150t47.5 -101t88.5 -62t127.5 -30.5t177.5 -8.5t177.5 8.5t127.5 30.5t88 62t47 101t16 150t-16 149.5t-47 100.5t-88 61.5 t-127.5 30t-177.5 8.5t-177.5 -8.5t-128 -30t-88.5 -61.5t-47 -100.5t-16 -149.5z" />
<glyph unicode="1" horiz-adv-x="913" d="M25 1014l256 356h501v-1370h-424v1014h-333z" />
<glyph unicode="2" horiz-adv-x="1914" d="M98 0v449q0 186 131 280t383 94h652q75 0 110 22.5t35 74.5q0 51 -35 72.5t-110 21.5h-1108l272 356h803q301 0 444.5 -112t143.5 -314q0 -183 -129 -288t-385 -105h-652q-75 0 -110 -23t-35 -75v-101h1321l-273 -352h-1458z" />
<glyph unicode="3" horiz-adv-x="1865" d="M18 0l271 352h938q131 0 131 97q0 92 -131 92h-821l219 293h608q52 0 85.5 21.5t33.5 70.5q0 47 -34 67.5t-85 20.5h-1147l272 356h856q252 0 395.5 -97t143.5 -282q0 -113 -53.5 -184.5t-132.5 -101.5q94 -28 154.5 -108t60.5 -198q0 -71 -16 -129t-56 -109.5 t-102.5 -86t-159 -54.5t-223.5 -20h-1207z" />
<glyph unicode="4" horiz-adv-x="1966" d="M59 348q0 94 88 168l990 803q91 74 192 74t167.5 -64t66.5 -192v-637h391l-248 -336h-143v-164h-406v164h-893q-92 0 -148.5 54.5t-56.5 129.5zM680 492q76 8 233 8h244v205q0 115 8 178q-55 -55 -149 -131l-152 -121q-128 -103 -184 -139z" />
<glyph unicode="5" horiz-adv-x="1841" d="M86 0l272 352h844q75 0 110.5 24t35.5 77q0 52 -35.5 75t-110.5 23h-1044v819h1550l-274 -356h-856v-191h665q251 0 381.5 -94t130.5 -280q0 -449 -586 -449h-1083z" />
<glyph unicode="6" horiz-adv-x="1988" d="M86 698q0 197 107 351t294.5 237.5t423.5 83.5h883l-272 -356h-631q-125 0 -222 -51t-145 -140h867q238 0 375 -98t137 -281q0 -467 -856 -467q-480 0 -720.5 175.5t-240.5 545.5zM524 551q15 -54 46.5 -92.5t75.5 -62.5t110 -38t139.5 -19t175.5 -5q171 0 268 15 t130.5 40.5t33.5 67.5q0 49 -35 71.5t-110 22.5h-834z" />
<glyph unicode="7" horiz-adv-x="1730" d="M25 1014l270 356h1184q112 0 172.5 -52t60.5 -130q0 -80 -67 -158l-879 -1030h-535l672 756q180 204 252 268q-130 -10 -387 -10h-743z" />
<glyph unicode="8" horiz-adv-x="1951" d="M86 399q0 118 60 198t155 108q-81 29 -134.5 101t-53.5 185q0 185 143 282t395 97h649q252 0 395.5 -97t143.5 -282q0 -113 -53.5 -185t-134.5 -101q95 -28 155 -108t60 -198q0 -71 -16 -129t-55.5 -109.5t-101.5 -86t-158.5 -54.5t-223.5 -20h-670q-127 0 -223.5 20 t-158.5 54.5t-101.5 86t-55.5 109.5t-16 129zM508 449q0 -97 131 -97h674q131 0 131 97q0 92 -131 92h-674q-131 0 -131 -92zM516 926q0 -49 33 -70.5t84 -21.5h686q51 0 84 21.5t33 70.5q0 47 -33 67.5t-84 20.5h-686q-51 0 -84 -20.5t-33 -67.5z" />
<glyph unicode="9" horiz-adv-x="1988" d="M86 926q0 467 856 467q961 0 961 -678q0 -163 -62.5 -298.5t-172.5 -226t-261.5 -140.5t-329.5 -50h-864l274 352h611q130 0 224 63t142 163q-66 -11 -120.5 -16t-242.5 -10t-503 -5q-238 0 -375 98t-137 281zM485 913q0 -94 146 -94q435 0 581 4.5t252 16.5 q-11 43 -32.5 75t-58 53.5t-78.5 35t-104 20.5t-124 9.5t-149 2.5q-172 0 -268.5 -15t-130.5 -40t-34 -68z" />
<glyph unicode=":" horiz-adv-x="753" d="M139 174q0 93 66 147t166 54q98 0 163.5 -54t65.5 -147q0 -91 -65 -144t-164 -53q-100 0 -166 53t-66 144zM139 838q0 91 66 144.5t166 53.5q98 0 163.5 -53.5t65.5 -144.5q0 -92 -65 -145.5t-164 -53.5q-100 0 -166 53.5t-66 145.5z" />
<glyph unicode=";" horiz-adv-x="632" d="M94 838q0 91 66.5 144.5t165.5 53.5t165 -53.5t66 -144.5q0 -92 -66 -145.5t-165 -53.5t-165.5 53.5t-66.5 145.5zM119 -197v549h436l-203 -549h-233z" />
<glyph unicode="&#x3c;" horiz-adv-x="1251" d="M86 690q0 75 74 111l1007 471v-250l-714 -332l714 -330v-249l-1007 471q-74 33 -74 108z" />
<glyph unicode="=" horiz-adv-x="1288" d="M86 309v230h1118v-230h-1118zM86 852v229h1118v-229h-1118z" />
<glyph unicode="&#x3e;" horiz-adv-x="1251" d="M86 111v249l715 330l-715 332v250l1008 -471q73 -37 73 -111q0 -33 -18.5 -62t-54.5 -46z" />
<glyph unicode="?" horiz-adv-x="1521" d="M25 1014l274 356h582q301 0 443 -112t142 -314q0 -184 -128 -288.5t-384 -104.5h-206q-41 0 -41 -33v-8h-351v43q0 134 76 202t246 68h235q75 0 110.5 22.5t35.5 74.5q0 51 -35 72.5t-111 21.5h-888zM317 174q0 93 66 147t166 54q98 0 163.5 -54t65.5 -147 q0 -91 -65 -144t-164 -53q-100 0 -166 53t-66 144z" />
<glyph unicode="@" horiz-adv-x="1867" d="M86 670q0 148 63.5 278t173 222.5t263.5 146t329 53.5h826v-1001h-875q-146 0 -236.5 90t-90.5 223q0 134 89 222.5t238 88.5h451v-432h149v582h-551q-240 0 -398.5 -126.5t-158.5 -326.5q0 -202 157.5 -332.5t399.5 -130.5h615l176 -227h-791q-240 0 -428.5 83 t-294.5 236t-106 351zM793 690q0 -58 41.5 -93.5t107.5 -35.5h137v256h-137q-65 0 -107 -36t-42 -91z" />
<glyph unicode="A" d="M23 0l878 1239q110 154 275 154q164 0 270 -154l856 -1239h-1593l256 352h344q177 0 243 -4q-34 45 -139 199l-246 362l-643 -909h-501z" />
<glyph unicode="B" horiz-adv-x="1974" d="M129 0v834h1212q52 0 85.5 21.5t33.5 70.5q0 47 -34 67.5t-85 20.5h-1212l287 356h907q252 0 395.5 -97t143.5 -282q0 -113 -53.5 -184.5t-133.5 -101.5q94 -28 154.5 -108t60.5 -198q0 -71 -16 -129t-56 -109.5t-102.5 -86t-159 -54.5t-223.5 -20h-1204zM555 352h780 q131 0 131 97q0 92 -131 92h-780v-189z" />
<glyph unicode="C" horiz-adv-x="1890" d="M86 698q0 197 107 351t294.5 237.5t423.5 83.5h961l-273 -356h-688q-173 0 -287 -93.5t-114 -240.5q0 -145 113 -236.5t288 -91.5h961l-273 -352h-688q-175 0 -328.5 53.5t-262.5 146t-171.5 222t-62.5 276.5z" />
<glyph unicode="D" horiz-adv-x="1957" d="M129 0v854h426v-502h492q178 0 291.5 90.5t113.5 237.5q0 144 -116 239t-289 95h-918l270 356h648q237 0 425 -85t294 -238.5t106 -348.5q0 -147 -62.5 -276.5t-171.5 -222t-262.5 -146t-328.5 -53.5h-918z" />
<glyph unicode="E" horiz-adv-x="1736" d="M129 0v1370h1587l-274 -356h-887v-164h1085l-243 -311h-842v-187h1165l-272 -352h-1319z" />
<glyph unicode="F" horiz-adv-x="1679" d="M129 0v1370h1536l-274 -356h-836v-178h1032l-258 -334h-774v-502h-426z" />
<glyph unicode="G" horiz-adv-x="1966" d="M86 698q0 197 107 351t294.5 237.5t423.5 83.5h981l-274 -356h-707q-173 0 -288 -94.5t-115 -239.5q0 -148 112 -238t291 -90h519v199h-709l254 305h876v-856h-940q-175 0 -328.5 53.5t-262.5 146t-171.5 222t-62.5 276.5z" />
<glyph unicode="H" horiz-adv-x="1923" d="M129 0v1370h426v-485h815v485h422v-1370h-422v528h-815v-528h-426z" />
<glyph unicode="I" horiz-adv-x="694" d="M135 0v1370h424v-1370h-424z" />
<glyph unicode="J" horiz-adv-x="1499" d="M23 0l276 352h236q241 0 335.5 61t94.5 210v747h426v-747q0 -623 -856 -623h-512z" />
<glyph unicode="K" horiz-adv-x="1867" d="M129 0v1370h426v-317q0 -96 -8 -240q144 133 252 223l395 334h614l-524 -393q-258 -194 -354 -252q154 -105 360 -272l568 -453h-641l-414 360q-188 164 -254 230q6 -189 6 -197v-393h-426z" />
<glyph unicode="L" horiz-adv-x="1626" d="M129 0v1370h424v-1018h1061l-275 -352h-1210z" />
<glyph unicode="M" horiz-adv-x="2578" d="M31 0l354 1204q27 92 92 140.5t148 48.5q152 0 231 -146l219 -387q142 -248 221 -409q60 128 220 407l219 389q81 146 233 146q83 0 147 -48.5t91 -140.5l346 -1204h-422l-129 477q-64 232 -94 377q-72 -154 -191 -379l-184 -344q-50 -94 -104.5 -124t-139.5 -30 t-139.5 30t-104.5 124l-184 346q-130 245 -192 377q-16 -89 -93 -377l-129 -477h-415z" />
<glyph unicode="N" horiz-adv-x="1871" d="M123 0v1137q0 128 66 192t165 64q88 0 170 -74l840 -754v805h387v-1134q0 -129 -66.5 -194t-166.5 -65q-90 0 -170 74l-840 754v-805h-385z" />
<glyph unicode="O" horiz-adv-x="2174" d="M86 686q0 364 247.5 535.5t753.5 171.5q505 0 753.5 -172t248.5 -535t-249 -536t-753 -173q-505 0 -753 172.5t-248 536.5zM508 686q0 -74 12.5 -128.5t43.5 -94t73.5 -64t110.5 -39.5t147.5 -20.5t191.5 -5.5q135 0 225 8.5t162.5 30.5t112 62t60 101t20.5 150 q0 64 -10 112.5t-30 86t-54.5 63.5t-78 43.5t-107 27t-134 13.5t-166.5 4q-112 0 -191 -5.5t-147.5 -20t-111 -39t-73.5 -64t-43.5 -93.5t-12.5 -128z" />
<glyph unicode="P" horiz-adv-x="2023" d="M125 0v700h1180q97 0 151.5 43t54.5 115q0 73 -54.5 114.5t-151.5 41.5h-1180l281 356h860q313 0 492 -141t179 -373q0 -230 -179 -368t-494 -138h-717v-350h-422z" />
<glyph unicode="Q" horiz-adv-x="2174" d="M86 686q0 364 247.5 535.5t753.5 171.5q505 0 753.5 -172t248.5 -535q0 -134 -59 -229h-455q92 68 92 229q0 64 -10 112.5t-30 86t-54.5 63.5t-78 43.5t-107 27t-134 13.5t-166.5 4q-112 0 -191 -5.5t-147.5 -20t-111 -39t-73.5 -64t-43.5 -93.5t-12.5 -128 q0 -182 102.5 -258t302.5 -76h88q93 0 166 -6q-68 45 -147 107l-174 135h553l715 -588h-1201q-176 0 -325.5 44.5t-262 129t-176 216t-63.5 296.5z" />
<glyph unicode="R" horiz-adv-x="2095" d="M125 0v700h1192q100 0 166.5 42.5t66.5 111.5q0 78 -61 119t-172 41h-1192l276 356h881q101 0 193.5 -13t188 -47t165.5 -87.5t114 -141t44 -200.5q0 -162 -96.5 -282t-262.5 -153q62 -46 193 -180l252 -266h-568l-305 362h-651v-362h-424z" />
<glyph unicode="S" horiz-adv-x="1972" d="M49 0l273 352h1036q76 0 110.5 23.5t34.5 77.5q0 52 -34.5 75t-110.5 23h-746q-256 0 -385 105t-129 288q0 202 143.5 314t444.5 112h1190l-272 -356h-951q-75 0 -110 -21.5t-35 -72.5q0 -52 35 -74.5t110 -22.5h746q252 0 383 -94t131 -280q0 -449 -588 -449h-1276z" />
<glyph unicode="T" horiz-adv-x="1830" d="M0 1014l274 356h1557l-275 -356h-489v-1014h-424v1014h-643z" />
<glyph unicode="U" horiz-adv-x="2019" d="M111 598v772h421v-772q0 -64 13 -106t45 -75.5t92.5 -51t150 -26.5t222.5 -9q164 0 257 27.5t132 84.5t39 156v772h426v-772q0 -621 -854 -621q-489 0 -716.5 153.5t-227.5 467.5z" />
<glyph unicode="V" d="M23 1370h520l616 -909l643 909h500l-877 -1239q-114 -154 -274 -154q-164 0 -270 154z" />
<glyph unicode="W" horiz-adv-x="2580" d="M27 1370h424l129 -477q68 -243 92 -377q64 137 192 379l185 344q50 94 103.5 124t137.5 30q86 0 141 -30t105 -124l182 -346q121 -223 193 -377q28 131 94 377l129 477h414l-355 -1204q-27 -92 -90.5 -140.5t-146.5 -48.5q-151 0 -234 146l-219 387q-156 277 -221 412 q-50 -114 -217 -410l-219 -389q-81 -146 -234 -146q-83 0 -146.5 48.5t-90.5 140.5z" />
<glyph unicode="X" horiz-adv-x="2129" d="M35 0l446 412q222 205 320 280q-68 49 -320 285l-420 393h588l436 -426l441 426h549l-433 -395q-233 -211 -305 -266q35 -24 96.5 -79t235.5 -218l438 -412h-598l-467 453l-481 -453h-526z" />
<glyph unicode="Y" horiz-adv-x="2105" d="M16 1370h545l328 -381q6 -7 56 -63t83.5 -95t46.5 -57q35 51 172 217l312 379h532l-813 -917v-453h-426v455z" />
<glyph unicode="Z" horiz-adv-x="1841" d="M23 1014l270 356h1263q83 0 140 -46t57 -126q0 -46 -24.5 -91t-67.5 -77l-506 -401q-265 -209 -373 -285q136 8 545 8h498l-256 -352h-1299q-83 0 -139.5 46t-56.5 126q0 97 92 170l500 393q186 149 376 287q-99 -8 -471 -8h-548z" />
<glyph unicode="[" horiz-adv-x="651" d="M162 -264v1888h393v-248h-145v-1394h145v-246h-393z" />
<glyph unicode="\" horiz-adv-x="966" d="M0 1446h248l719 -1524h-265z" />
<glyph unicode="]" horiz-adv-x="653" d="M96 -18h146v1394h-146v248h391v-1888h-391v246z" />
<glyph unicode="^" horiz-adv-x="1173" d="M90 606l328 764h334l327 -764h-276l-213 531l-213 -531h-287z" />
<glyph unicode="_" horiz-adv-x="1380" d="M0 -86h1391v-184h-1391v184z" />
<glyph unicode="`" horiz-adv-x="804" d="M39 1544v232l610 -142v-170z" />
<glyph unicode="a" d="M23 0l878 1239q110 154 275 154q164 0 270 -154l856 -1239h-1593l256 352h344q177 0 243 -4q-34 45 -139 199l-246 362l-643 -909h-501z" />
<glyph unicode="b" horiz-adv-x="1974" d="M129 0v834h1212q52 0 85.5 21.5t33.5 70.5q0 47 -34 67.5t-85 20.5h-1212l287 356h907q252 0 395.5 -97t143.5 -282q0 -113 -53.5 -184.5t-133.5 -101.5q94 -28 154.5 -108t60.5 -198q0 -71 -16 -129t-56 -109.5t-102.5 -86t-159 -54.5t-223.5 -20h-1204zM555 352h780 q131 0 131 97q0 92 -131 92h-780v-189z" />
<glyph unicode="c" horiz-adv-x="1890" d="M86 698q0 197 107 351t294.5 237.5t423.5 83.5h961l-273 -356h-688q-173 0 -287 -93.5t-114 -240.5q0 -145 113 -236.5t288 -91.5h961l-273 -352h-688q-175 0 -328.5 53.5t-262.5 146t-171.5 222t-62.5 276.5z" />
<glyph unicode="d" horiz-adv-x="1957" d="M129 0v854h426v-502h492q178 0 291.5 90.5t113.5 237.5q0 144 -116 239t-289 95h-918l270 356h648q237 0 425 -85t294 -238.5t106 -348.5q0 -147 -62.5 -276.5t-171.5 -222t-262.5 -146t-328.5 -53.5h-918z" />
<glyph unicode="e" horiz-adv-x="1736" d="M129 0v1370h1587l-274 -356h-887v-164h1085l-243 -311h-842v-187h1165l-272 -352h-1319z" />
<glyph unicode="f" horiz-adv-x="1679" d="M129 0v1370h1536l-274 -356h-836v-178h1032l-258 -334h-774v-502h-426z" />
<glyph unicode="g" horiz-adv-x="1966" d="M86 698q0 197 107 351t294.5 237.5t423.5 83.5h981l-274 -356h-707q-173 0 -288 -94.5t-115 -239.5q0 -148 112 -238t291 -90h519v199h-709l254 305h876v-856h-940q-175 0 -328.5 53.5t-262.5 146t-171.5 222t-62.5 276.5z" />
<glyph unicode="h" horiz-adv-x="1923" d="M129 0v1370h426v-485h815v485h422v-1370h-422v528h-815v-528h-426z" />
<glyph unicode="i" horiz-adv-x="694" d="M135 0v1370h424v-1370h-424z" />
<glyph unicode="j" horiz-adv-x="1499" d="M23 0l276 352h236q241 0 335.5 61t94.5 210v747h426v-747q0 -623 -856 -623h-512z" />
<glyph unicode="k" horiz-adv-x="1867" d="M129 0v1370h426v-317q0 -96 -8 -240q144 133 252 223l395 334h614l-524 -393q-258 -194 -354 -252q154 -105 360 -272l568 -453h-641l-414 360q-188 164 -254 230q6 -189 6 -197v-393h-426z" />
<glyph unicode="l" horiz-adv-x="1626" d="M129 0v1370h424v-1018h1061l-275 -352h-1210z" />
<glyph unicode="m" horiz-adv-x="2578" d="M31 0l354 1204q27 92 92 140.5t148 48.5q152 0 231 -146l219 -387q142 -248 221 -409q60 128 220 407l219 389q81 146 233 146q83 0 147 -48.5t91 -140.5l346 -1204h-422l-129 477q-64 232 -94 377q-72 -154 -191 -379l-184 -344q-50 -94 -104.5 -124t-139.5 -30 t-139.5 30t-104.5 124l-184 346q-130 245 -192 377q-16 -89 -93 -377l-129 -477h-415z" />
<glyph unicode="n" horiz-adv-x="1871" d="M123 0v1137q0 128 66 192t165 64q88 0 170 -74l840 -754v805h387v-1134q0 -129 -66.5 -194t-166.5 -65q-90 0 -170 74l-840 754v-805h-385z" />
<glyph unicode="o" horiz-adv-x="2174" d="M86 686q0 364 247.5 535.5t753.5 171.5q505 0 753.5 -172t248.5 -535t-249 -536t-753 -173q-505 0 -753 172.5t-248 536.5zM508 686q0 -74 12.5 -128.5t43.5 -94t73.5 -64t110.5 -39.5t147.5 -20.5t191.5 -5.5q135 0 225 8.5t162.5 30.5t112 62t60 101t20.5 150 q0 64 -10 112.5t-30 86t-54.5 63.5t-78 43.5t-107 27t-134 13.5t-166.5 4q-112 0 -191 -5.5t-147.5 -20t-111 -39t-73.5 -64t-43.5 -93.5t-12.5 -128z" />
<glyph unicode="p" horiz-adv-x="2023" d="M125 0v700h1180q97 0 151.5 43t54.5 115q0 73 -54.5 114.5t-151.5 41.5h-1180l281 356h860q313 0 492 -141t179 -373q0 -230 -179 -368t-494 -138h-717v-350h-422z" />
<glyph unicode="q" horiz-adv-x="2174" d="M86 686q0 364 247.5 535.5t753.5 171.5q505 0 753.5 -172t248.5 -535q0 -134 -59 -229h-455q92 68 92 229q0 64 -10 112.5t-30 86t-54.5 63.5t-78 43.5t-107 27t-134 13.5t-166.5 4q-112 0 -191 -5.5t-147.5 -20t-111 -39t-73.5 -64t-43.5 -93.5t-12.5 -128 q0 -182 102.5 -258t302.5 -76h88q93 0 166 -6q-68 45 -147 107l-174 135h553l715 -588h-1201q-176 0 -325.5 44.5t-262 129t-176 216t-63.5 296.5z" />
<glyph unicode="r" horiz-adv-x="2095" d="M125 0v700h1192q100 0 166.5 42.5t66.5 111.5q0 78 -61 119t-172 41h-1192l276 356h881q101 0 193.5 -13t188 -47t165.5 -87.5t114 -141t44 -200.5q0 -162 -96.5 -282t-262.5 -153q62 -46 193 -180l252 -266h-568l-305 362h-651v-362h-424z" />
<glyph unicode="s" horiz-adv-x="1972" d="M49 0l273 352h1036q76 0 110.5 23.5t34.5 77.5q0 52 -34.5 75t-110.5 23h-746q-256 0 -385 105t-129 288q0 202 143.5 314t444.5 112h1190l-272 -356h-951q-75 0 -110 -21.5t-35 -72.5q0 -52 35 -74.5t110 -22.5h746q252 0 383 -94t131 -280q0 -449 -588 -449h-1276z" />
<glyph unicode="t" horiz-adv-x="1830" d="M0 1014l274 356h1557l-275 -356h-489v-1014h-424v1014h-643z" />
<glyph unicode="u" horiz-adv-x="2019" d="M111 598v772h421v-772q0 -64 13 -106t45 -75.5t92.5 -51t150 -26.5t222.5 -9q164 0 257 27.5t132 84.5t39 156v772h426v-772q0 -621 -854 -621q-489 0 -716.5 153.5t-227.5 467.5z" />
<glyph unicode="v" d="M23 1370h520l616 -909l643 909h500l-877 -1239q-114 -154 -274 -154q-164 0 -270 154z" />
<glyph unicode="w" horiz-adv-x="2580" d="M27 1370h424l129 -477q68 -243 92 -377q64 137 192 379l185 344q50 94 103.5 124t137.5 30q86 0 141 -30t105 -124l182 -346q121 -223 193 -377q28 131 94 377l129 477h414l-355 -1204q-27 -92 -90.5 -140.5t-146.5 -48.5q-151 0 -234 146l-219 387q-156 277 -221 412 q-50 -114 -217 -410l-219 -389q-81 -146 -234 -146q-83 0 -146.5 48.5t-90.5 140.5z" />
<glyph unicode="x" horiz-adv-x="2129" d="M35 0l446 412q222 205 320 280q-68 49 -320 285l-420 393h588l436 -426l441 426h549l-433 -395q-233 -211 -305 -266q35 -24 96.5 -79t235.5 -218l438 -412h-598l-467 453l-481 -453h-526z" />
<glyph unicode="y" horiz-adv-x="2105" d="M16 1370h545l328 -381q6 -7 56 -63t83.5 -95t46.5 -57q35 51 172 217l312 379h532l-813 -917v-453h-426v455z" />
<glyph unicode="z" horiz-adv-x="1841" d="M23 1014l270 356h1263q83 0 140 -46t57 -126q0 -46 -24.5 -91t-67.5 -77l-506 -401q-265 -209 -373 -285q136 8 545 8h498l-256 -352h-1299q-83 0 -139.5 46t-56.5 126q0 97 92 170l500 393q186 149 376 287q-99 -8 -471 -8h-548z" />
<glyph unicode="{" horiz-adv-x="739" d="M145 565v217q125 3 125 72v516q0 254 234 254h137v-248q-123 0 -123 -45v-457q0 -154 -117 -200q117 -40 117 -201v-446q0 -45 123 -45v-246h-137q-234 0 -234 252v504q0 70 -125 73z" />
<glyph unicode="|" horiz-adv-x="612" d="M193 -203v1749h225v-1749h-225z" />
<glyph unicode="}" horiz-adv-x="739" d="M96 -18q125 0 125 45v446q0 161 117 201q-117 46 -117 200v457q0 45 -125 45v248h140q233 0 233 -254v-516q0 -69 125 -72v-217q-125 -3 -125 -73v-504q0 -252 -233 -252h-140v246z" />
<glyph unicode="~" horiz-adv-x="1161" d="M82 436v336q129 135 280 135q50 0 111.5 -23.5t110.5 -51t112.5 -51t116.5 -23.5q129 0 254 164v-336q-133 -133 -285 -133q-51 0 -113 23.5t-111 52t-110.5 52t-111.5 23.5q-129 0 -254 -168z" />
<glyph unicode="&#xa1;" horiz-adv-x="665" d="M106 1196q0 91 65.5 144t164.5 53q100 0 165.5 -53t65.5 -144q0 -93 -65.5 -147t-165.5 -54q-99 0 -164.5 54.5t-65.5 146.5zM129 0v457l47 403h332l45 -403v-457h-424z" />
<glyph unicode="&#xa2;" horiz-adv-x="1349" d="M102 715q0 138 75.5 246.5t208 167.5t298.5 59v182h168v-182h430l-190 -252h-240v-465h430l-190 -248h-240v-223h-168v223q-250 0 -416 140.5t-166 351.5zM403 702q0 -103 79.5 -167t201.5 -64v465q-121 0 -201 -66t-80 -168z" />
<glyph unicode="&#xa3;" horiz-adv-x="1665" d="M0 561l207 264h209v119q0 201 146 313.5t448 112.5h637l-273 -356h-397q-76 0 -111 -21.5t-35 -72.5v-95h445l-209 -264h-236v-209h818l-275 -352h-1311l275 352h78v209h-416z" />
<glyph unicode="&#xa5;" horiz-adv-x="2105" d="M16 1370h545l328 -381q6 -7 56 -63t83.5 -95t46.5 -57q35 51 172 217l312 379h532l-584 -657h330v-230h-532l-27 -30v-99h559v-229h-559v-125h-426v125h-543v229h543v101l-27 28h-516v230h307z" />
<glyph unicode="&#xa6;" horiz-adv-x="612" d="M193 -203v674h225v-674h-225zM193 911v635h225v-635h-225z" />
<glyph unicode="&#xa8;" horiz-adv-x="880" d="M53 1649q0 71 49.5 112t124.5 41q76 0 126 -41t50 -112q0 -69 -50 -109.5t-126 -40.5q-74 0 -124 40.5t-50 109.5zM479 1649q0 71 50 112t124 41q76 0 126 -41t50 -112q0 -69 -50 -109.5t-126 -40.5q-73 0 -123.5 41t-50.5 109z" />
<glyph unicode="&#xa9;" horiz-adv-x="1593" d="M90 686q0 116 36 224.5t101.5 195.5t152.5 152.5t195.5 101t223.5 35.5q192 0 355 -94.5t258 -258t95 -356.5q0 -144 -56 -275.5t-151 -226.5t-226 -151t-275 -56q-115 0 -223.5 36t-195.5 101.5t-152.5 152.5t-101.5 195.5t-36 223.5zM174 684q0 -128 49.5 -244.5 t133.5 -200t200.5 -133t245.5 -49.5q170 0 314.5 83.5t228.5 228t84 315.5q0 170 -84 316t-228.5 231.5t-314.5 85.5q-129 0 -245.5 -50.5t-200.5 -136t-133.5 -202t-49.5 -244.5zM438 690q0 143 99.5 232.5t253.5 89.5h239l-84 -113h-155q-95 0 -159.5 -61t-64.5 -156 t63.5 -155t160.5 -60h239l-84 -111h-155q-152 0 -252.5 95.5t-100.5 238.5z" />
<glyph unicode="&#xaa;" horiz-adv-x="1392" d="M72 582l483 680q63 86 150 86q89 0 147 -86l471 -680h-874l141 194h186q100 0 137 -2q-16 19 -77 109l-136 198l-354 -499h-274z" />
<glyph unicode="&#xab;" horiz-adv-x="933" d="M59 565v187l357 256v-195l-232 -147l232 -152v-190zM494 565v187l356 256v-195l-232 -147l232 -152v-190z" />
<glyph unicode="&#xad;" horiz-adv-x="950" d="M31 561l207 264h684l-207 -264h-684z" />
<glyph unicode="&#xae;" horiz-adv-x="1030" d="M88 991q0 80 32 153.5t87 128.5t135.5 87.5t171.5 32.5q185 0 308.5 -117t123.5 -285q0 -106 -56.5 -198t-156.5 -147.5t-219 -55.5q-183 0 -304.5 118.5t-121.5 282.5zM166 991q0 -82 41 -156t122 -122.5t183 -48.5q149 0 258 96t109 231q0 123 -107.5 223.5 t-259.5 100.5t-249 -99t-97 -225zM352 846v155h191q23 0 38 10t15 25q0 37 -53 37h-191l64 80h119q30 0 56 -5t51 -16.5t39.5 -34.5t14.5 -55q0 -37 -22 -63t-60 -33q4 -3 17 -16.5t26 -24.5l58 -59h-127l-70 80h-69v-80h-97z" />
<glyph unicode="&#xaf;" horiz-adv-x="804" d="M96 1536v170h611v-170h-611z" />
<glyph unicode="&#xb0;" horiz-adv-x="808" d="M96 1079q0 314 314 314q313 0 313 -314q0 -313 -313 -313q-314 0 -314 313zM262 1079q0 -147 148 -147q149 0 149 143q0 152 -149 152q-148 0 -148 -148z" />
<glyph unicode="&#xb1;" horiz-adv-x="1288" d="M86 -4h1118v-229h-1118v229zM86 582v229h442v442h230v-442h446v-229h-446v-447h-230v447h-442z" />
<glyph unicode="&#xb2;" horiz-adv-x="1015" d="M78 723v221q0 189 258 189h326q71 0 71 49q0 26 -17.5 36.5t-53.5 10.5h-556l136 178h401q151 0 223 -56t72 -157q0 -91 -65 -144t-193 -53h-326q-71 0 -71 -51v-47h661l-137 -176h-729z" />
<glyph unicode="&#xb3;" horiz-adv-x="991" d="M39 723l133 176h469q66 0 66 45q0 25 -15.5 36t-50.5 11h-410l111 148h303q60 0 60 47q0 43 -60 43h-573l135 178h428q127 0 198.5 -49t71.5 -141q0 -56 -27 -93t-65 -49q47 -14 77 -54t30 -99q0 -94 -63.5 -146.5t-215.5 -52.5h-602z" />
<glyph unicode="&#xb4;" horiz-adv-x="804" d="M156 1464v170l610 142v-232z" />
<glyph unicode="&#xb7;" horiz-adv-x="632" d="M86 690q0 93 65.5 147t163.5 54q100 0 166 -54t66 -147q0 -91 -66 -143.5t-166 -52.5q-99 0 -164 52.5t-65 143.5z" />
<glyph unicode="&#xb8;" horiz-adv-x="610" d="M133 -63h318l-170 -459h-148v459z" />
<glyph unicode="&#xb9;" horiz-adv-x="514" d="M41 1229l127 178h252v-684h-213v506h-166z" />
<glyph unicode="&#xba;" horiz-adv-x="1312" d="M104 958q0 201 137 295.5t416 94.5q278 0 414.5 -94.5t136.5 -295.5q0 -200 -137 -295.5t-414 -95.5q-279 0 -416 95.5t-137 295.5zM338 958q0 -118 67.5 -155t251.5 -37q93 0 149 7t96.5 28t56.5 58.5t16 98.5q0 117 -68 155t-250 38q-184 0 -251.5 -37.5t-67.5 -155.5z " />
<glyph unicode="&#xbb;" horiz-adv-x="933" d="M94 324v190l234 152l-234 147v195l359 -256v-187zM528 324v190l232 152l-232 147v195l357 -256v-187z" />
<glyph unicode="&#xbc;" horiz-adv-x="1896" d="M86 1229l127 178h252v-684h-213v506h-166zM162 -78l1106 1524h172l-1092 -1524h-186zM862 156q0 46 45 82l494 401q45 37 98 37q49 0 83 -32t34 -95v-318h194l-122 -170h-72v-79h-205v79h-444q-48 0 -76.5 28t-28.5 67zM1174 227q58 4 116 4h121v101q0 42 4 88 q-19 -19 -74 -64l-75 -61q-28 -24 -92 -68z" />
<glyph unicode="&#xbd;" horiz-adv-x="1945" d="M86 1229l127 178h252v-684h-213v506h-166zM143 -78l1106 1524h172l-1091 -1524h-187zM995 -18v221q0 188 258 188h326q72 0 72 49q0 47 -72 47h-555l135 179h402q294 0 294 -213q0 -91 -65 -144t-193 -53h-325q-72 0 -72 -51v-47h662l-138 -176h-729z" />
<glyph unicode="&#xbe;" horiz-adv-x="2164" d="M86 723l133 176h469q66 0 66 45q0 25 -15.5 36t-50.5 11h-409l110 148h303q60 0 60 47q0 43 -60 43h-573l135 178h428q127 0 198.5 -49t71.5 -141q0 -56 -27 -93t-65 -49q47 -14 77 -54t30 -99q0 -94 -63.5 -146.5t-215.5 -52.5h-602zM467 -78l1106 1524h172l-1092 -1524 h-186zM1130 156q0 45 46 82l493 401q45 37 98 37q49 0 83 -32t34 -95v-318h195l-123 -170h-72v-79h-205v79h-444q-48 0 -76.5 28t-28.5 67zM1442 227q58 4 117 4h120v101q0 42 4 88q-23 -24 -73 -64l-76 -61q-28 -24 -92 -68z" />
<glyph unicode="&#xbf;" horiz-adv-x="1521" d="M57 426q0 184 128 288.5t384 104.5h207q41 0 41 33v8h350v-43q0 -134 -75.5 -202t-245.5 -68h-236q-75 0 -110 -22t-35 -74q0 -51 35 -73t110 -22h889l-274 -356h-582q-301 0 -443.5 112t-142.5 314zM745 1196q0 91 65.5 144t164.5 53q100 0 165.5 -53t65.5 -144 q0 -93 -65.5 -147t-165.5 -54q-99 0 -164.5 54.5t-65.5 146.5z" />
<glyph unicode="&#xc0;" d="M23 0l878 1239q110 154 275 154q164 0 270 -154l856 -1239h-1593l256 352h344q177 0 243 -4q-34 45 -139 199l-246 362l-643 -909h-501zM799 1544v232l610 -142v-170z" />
<glyph unicode="&#xc1;" d="M23 0l878 1239q110 154 275 154q164 0 270 -154l856 -1239h-1593l256 352h344q177 0 243 -4q-34 45 -139 199l-246 362l-643 -909h-501zM915 1464v170l611 142v-232z" />
<glyph unicode="&#xc2;" d="M23 0l878 1239q110 154 275 154q164 0 270 -154l856 -1239h-1593l256 352h344q177 0 243 -4q-34 45 -139 199l-246 362l-643 -909h-501zM836 1464l194 312h268l191 -312h-203l-115 207h-18l-113 -207h-204z" />
<glyph unicode="&#xc3;" d="M23 0l878 1239q110 154 275 154q164 0 270 -154l856 -1239h-1593l256 352h344q177 0 243 -4q-34 45 -139 199l-246 362l-643 -909h-501zM856 1509v170q56 62 158 62q53 0 148.5 -43t148.5 -43q45 0 86 20.5t69 53.5v-168q-54 -62 -155 -62q-52 0 -148 42t-149 42 q-45 0 -87.5 -21t-70.5 -53z" />
<glyph unicode="&#xc4;" d="M23 0l878 1239q110 154 275 154q164 0 270 -154l856 -1239h-1593l256 352h344q177 0 243 -4q-34 45 -139 199l-246 362l-643 -909h-501zM774 1649q0 71 49.5 112t124.5 41q76 0 126 -41t50 -112q0 -69 -50 -109.5t-126 -40.5q-74 0 -124 40.5t-50 109.5zM1200 1649 q0 71 50 112t124 41q76 0 126 -41t50 -112q0 -69 -50 -109.5t-126 -40.5q-73 0 -123.5 41t-50.5 109z" />
<glyph unicode="&#xc5;" d="M23 0l878 1239q110 154 275 154q164 0 270 -154l856 -1239h-1593l256 352h344q177 0 243 -4q-34 45 -139 199l-246 362l-643 -909h-501zM866 1634v129q0 172 211 172h168q213 0 213 -172v-129q0 -170 -213 -170h-168q-211 0 -211 170zM1026 1647q0 -37 39 -37h192 q41 0 41 37v104q0 37 -41 37h-192q-39 0 -39 -37v-104z" />
<glyph unicode="&#xc6;" horiz-adv-x="2953" d="M23 0l862 1214q108 156 272 156h1776l-275 -356h-886v-164h1085l-242 -311h-843v-187h1167l-275 -352h-1316v1014h-109l-715 -1014h-501z" />
<glyph unicode="&#xc7;" horiz-adv-x="1890" d="M86 698q0 197 107 351t294.5 237.5t423.5 83.5h961l-273 -356h-688q-173 0 -287 -93.5t-114 -240.5q0 -145 113 -236.5t288 -91.5h961l-273 -352h-688q-175 0 -328.5 53.5t-262.5 146t-171.5 222t-62.5 276.5zM911 -63h316l-168 -459h-148v459z" />
<glyph unicode="&#xc8;" horiz-adv-x="1736" d="M129 0v1370h1587l-274 -356h-887v-164h1085l-243 -311h-842v-187h1165l-272 -352h-1319zM524 1544v232l611 -142v-170z" />
<glyph unicode="&#xc9;" horiz-adv-x="1736" d="M129 0v1370h1587l-274 -356h-887v-164h1085l-243 -311h-842v-187h1165l-272 -352h-1319zM602 1464v170l610 142v-232z" />
<glyph unicode="&#xca;" horiz-adv-x="1736" d="M129 0v1370h1587l-274 -356h-887v-164h1085l-243 -311h-842v-187h1165l-272 -352h-1319zM561 1464l195 312h268l190 -312h-202l-115 207h-18l-113 -207h-205z" />
<glyph unicode="&#xcb;" horiz-adv-x="1736" d="M129 0v1370h1587l-274 -356h-887v-164h1085l-243 -311h-842v-187h1165l-272 -352h-1319zM473 1649q0 71 49.5 112t124.5 41q76 0 126 -41t50 -112q0 -69 -50 -109.5t-126 -40.5q-74 0 -124 40.5t-50 109.5zM899 1649q0 71 50 112t124 41q76 0 126 -41t50 -112 q0 -69 -50 -109.5t-126 -40.5q-73 0 -123.5 41t-50.5 109z" />
<glyph unicode="&#xcc;" horiz-adv-x="694" d="M-14 1544v232l610 -142v-170zM135 0v1370h424v-1370h-424z" />
<glyph unicode="&#xcd;" horiz-adv-x="694" d="M102 1464v170l611 142v-232zM135 0v1370h424v-1370h-424z" />
<glyph unicode="&#xce;" horiz-adv-x="694" d="M20 1464l195 312h268l191 -312h-203l-115 207h-18l-113 -207h-205zM135 0v1370h424v-1370h-424z" />
<glyph unicode="&#xcf;" horiz-adv-x="694" d="M-39 1649q0 71 49.5 112t124.5 41q76 0 126 -41t50 -112q0 -69 -50 -109.5t-126 -40.5q-74 0 -124 40.5t-50 109.5zM135 0v1370h424v-1370h-424zM387 1649q0 71 50 112t124 41q76 0 126 -41t50 -112q0 -69 -50 -109.5t-126 -40.5q-73 0 -123.5 41t-50.5 109z" />
<glyph unicode="&#xd0;" horiz-adv-x="2131" d="M0 539l242 311h981l-242 -311h-252v-187h492q178 0 291.5 90.5t113.5 237.5q0 144 -116 239t-289 95h-916l268 356h648q237 0 425 -85t294 -238.5t106 -348.5q0 -147 -62.5 -276.5t-171.5 -222t-262.5 -146t-328.5 -53.5h-916v539h-305z" />
<glyph unicode="&#xd1;" horiz-adv-x="1871" d="M123 0v1137q0 128 66 192t165 64q88 0 170 -74l840 -754v805h387v-1134q0 -129 -66.5 -194t-166.5 -65q-90 0 -170 74l-840 754v-805h-385zM623 1509v170q56 62 157 62q53 0 148.5 -43t148.5 -43q45 0 86.5 21t69.5 53v-168q-54 -62 -156 -62q-52 0 -148 42t-149 42 q-45 0 -87 -21t-70 -53z" />
<glyph unicode="&#xd2;" horiz-adv-x="2174" d="M86 686q0 364 247.5 535.5t753.5 171.5q505 0 753.5 -172t248.5 -535t-249 -536t-753 -173q-505 0 -753 172.5t-248 536.5zM508 686q0 -74 12.5 -128.5t43.5 -94t73.5 -64t110.5 -39.5t147.5 -20.5t191.5 -5.5q135 0 225 8.5t162.5 30.5t112 62t60 101t20.5 150 q0 64 -10 112.5t-30 86t-54.5 63.5t-78 43.5t-107 27t-134 13.5t-166.5 4q-112 0 -191 -5.5t-147.5 -20t-111 -39t-73.5 -64t-43.5 -93.5t-12.5 -128zM723 1544v232l610 -142v-170z" />
<glyph unicode="&#xd3;" horiz-adv-x="2174" d="M86 686q0 364 247.5 535.5t753.5 171.5q505 0 753.5 -172t248.5 -535t-249 -536t-753 -173q-505 0 -753 172.5t-248 536.5zM508 686q0 -74 12.5 -128.5t43.5 -94t73.5 -64t110.5 -39.5t147.5 -20.5t191.5 -5.5q135 0 225 8.5t162.5 30.5t112 62t60 101t20.5 150 q0 64 -10 112.5t-30 86t-54.5 63.5t-78 43.5t-107 27t-134 13.5t-166.5 4q-112 0 -191 -5.5t-147.5 -20t-111 -39t-73.5 -64t-43.5 -93.5t-12.5 -128zM840 1464v170l610 142v-232z" />
<glyph unicode="&#xd4;" horiz-adv-x="2174" d="M86 686q0 364 247.5 535.5t753.5 171.5q505 0 753.5 -172t248.5 -535t-249 -536t-753 -173q-505 0 -753 172.5t-248 536.5zM508 686q0 -74 12.5 -128.5t43.5 -94t73.5 -64t110.5 -39.5t147.5 -20.5t191.5 -5.5q135 0 225 8.5t162.5 30.5t112 62t60 101t20.5 150 q0 64 -10 112.5t-30 86t-54.5 63.5t-78 43.5t-107 27t-134 13.5t-166.5 4q-112 0 -191 -5.5t-147.5 -20t-111 -39t-73.5 -64t-43.5 -93.5t-12.5 -128zM760 1464l194 312h269l190 -312h-203l-114 207h-19l-112 -207h-205z" />
<glyph unicode="&#xd5;" horiz-adv-x="2174" d="M86 686q0 364 247.5 535.5t753.5 171.5q505 0 753.5 -172t248.5 -535t-249 -536t-753 -173q-505 0 -753 172.5t-248 536.5zM508 686q0 -74 12.5 -128.5t43.5 -94t73.5 -64t110.5 -39.5t147.5 -20.5t191.5 -5.5q135 0 225 8.5t162.5 30.5t112 62t60 101t20.5 150 q0 64 -10 112.5t-30 86t-54.5 63.5t-78 43.5t-107 27t-134 13.5t-166.5 4q-112 0 -191 -5.5t-147.5 -20t-111 -39t-73.5 -64t-43.5 -93.5t-12.5 -128zM780 1509v170q56 62 158 62q53 0 148.5 -43t148.5 -43q45 0 86.5 21t69.5 53v-168q-54 -62 -156 -62q-52 0 -148 42 t-149 42q-45 0 -87.5 -21t-70.5 -53z" />
<glyph unicode="&#xd6;" horiz-adv-x="2174" d="M86 686q0 364 247.5 535.5t753.5 171.5q505 0 753.5 -172t248.5 -535t-249 -536t-753 -173q-505 0 -753 172.5t-248 536.5zM508 686q0 -74 12.5 -128.5t43.5 -94t73.5 -64t110.5 -39.5t147.5 -20.5t191.5 -5.5q135 0 225 8.5t162.5 30.5t112 62t60 101t20.5 150 q0 64 -10 112.5t-30 86t-54.5 63.5t-78 43.5t-107 27t-134 13.5t-166.5 4q-112 0 -191 -5.5t-147.5 -20t-111 -39t-73.5 -64t-43.5 -93.5t-12.5 -128zM700 1649q0 71 49.5 112t124.5 41q76 0 126.5 -41t50.5 -112q0 -69 -50.5 -109.5t-126.5 -40.5q-74 0 -124 40.5 t-50 109.5zM1126 1649q0 71 50 112t124 41q76 0 126.5 -41t50.5 -112q0 -69 -50.5 -109.5t-126.5 -40.5q-73 0 -123.5 41t-50.5 109z" />
<glyph unicode="&#xd7;" horiz-adv-x="1288" d="M133 389l316 316l-314 315l162 160l313 -314l314 314l161 -162l-313 -313l315 -316l-163 -162l-314 316l-315 -314z" />
<glyph unicode="&#xd8;" horiz-adv-x="2174" d="M86 686q0 364 247.5 535.5t753.5 171.5q333 0 555 -74l154 147l105 -96l-117 -113q305 -173 305 -571q0 -363 -249 -536t-753 -173q-344 0 -559 76l-153 -149l-101 96l117 113q-305 171 -305 573zM508 686q0 -124 38 -196t124 -109l667 645q-117 10 -250 10 q-112 0 -191 -5.5t-147.5 -20t-111 -39t-73.5 -64t-43.5 -93.5t-12.5 -128zM834 344q87 -10 253 -10q135 0 225 8.5t162.5 30.5t112 62t60 101t20.5 150q0 123 -39 194.5t-127 108.5z" />
<glyph unicode="&#xd9;" horiz-adv-x="2019" d="M111 598v772h421v-772q0 -64 13 -106t45 -75.5t92.5 -51t150 -26.5t222.5 -9q164 0 257 27.5t132 84.5t39 156v772h426v-772q0 -621 -854 -621q-489 0 -716.5 153.5t-227.5 467.5zM645 1544v232l610 -142v-170z" />
<glyph unicode="&#xda;" horiz-adv-x="2019" d="M111 598v772h421v-772q0 -64 13 -106t45 -75.5t92.5 -51t150 -26.5t222.5 -9q164 0 257 27.5t132 84.5t39 156v772h426v-772q0 -621 -854 -621q-489 0 -716.5 153.5t-227.5 467.5zM762 1464v170l610 142v-232z" />
<glyph unicode="&#xdb;" horiz-adv-x="2019" d="M111 598v772h421v-772q0 -64 13 -106t45 -75.5t92.5 -51t150 -26.5t222.5 -9q164 0 257 27.5t132 84.5t39 156v772h426v-772q0 -621 -854 -621q-489 0 -716.5 153.5t-227.5 467.5zM682 1464l195 312h268l190 -312h-202l-115 207h-19l-112 -207h-205z" />
<glyph unicode="&#xdc;" horiz-adv-x="2019" d="M111 598v772h421v-772q0 -64 13 -106t45 -75.5t92.5 -51t150 -26.5t222.5 -9q164 0 257 27.5t132 84.5t39 156v772h426v-772q0 -621 -854 -621q-489 0 -716.5 153.5t-227.5 467.5zM623 1649q0 71 49.5 112t124.5 41q76 0 126 -41t50 -112q0 -69 -50 -109.5t-126 -40.5 q-74 0 -124 40.5t-50 109.5zM1049 1649q0 71 50 112t124 41q76 0 126 -41t50 -112q0 -69 -50 -109.5t-126 -40.5q-73 0 -123.5 41t-50.5 109z" />
<glyph unicode="&#xdd;" horiz-adv-x="2105" d="M16 1370h545l328 -381q6 -7 56 -63t83.5 -95t46.5 -57q35 51 172 217l312 379h532l-813 -917v-453h-426v455zM797 1464v170l610 142v-232z" />
<glyph unicode="&#xde;" horiz-adv-x="1961" d="M129 0v1370h424v-192h657q317 0 496.5 -137t179.5 -369q0 -231 -179.5 -371.5t-494.5 -140.5h-559l281 356h317q99 0 154 41.5t55 112.5q0 73 -55 116t-154 43h-698v-829h-424z" />
<glyph unicode="&#xdf;" horiz-adv-x="3946" d="M49 0l273 352h1036q76 0 110.5 23.5t34.5 77.5q0 52 -34.5 75t-110.5 23h-746q-256 0 -385 105t-129 288q0 202 143.5 314t444.5 112h1190l-272 -356h-951q-75 0 -110 -21.5t-35 -72.5q0 -52 35 -74.5t110 -22.5h746q252 0 383 -94t131 -280q0 -449 -588 -449h-1276z M2021 0l273 352h1036q76 0 110.5 23.5t34.5 77.5q0 52 -34.5 75t-110.5 23h-745q-256 0 -385 105t-129 288q0 202 143 314t444 112h1190l-272 -356h-950q-76 0 -111 -21.5t-35 -72.5q0 -52 35.5 -74.5t110.5 -22.5h745q252 0 383 -94t131 -280q0 -449 -588 -449h-1276z" />
<glyph unicode="&#xe0;" d="M23 0l878 1239q110 154 275 154q164 0 270 -154l856 -1239h-1593l256 352h344q177 0 243 -4q-34 45 -139 199l-246 362l-643 -909h-501zM799 1544v232l610 -142v-170z" />
<glyph unicode="&#xe1;" d="M23 0l878 1239q110 154 275 154q164 0 270 -154l856 -1239h-1593l256 352h344q177 0 243 -4q-34 45 -139 199l-246 362l-643 -909h-501zM915 1464v170l611 142v-232z" />
<glyph unicode="&#xe2;" d="M23 0l878 1239q110 154 275 154q164 0 270 -154l856 -1239h-1593l256 352h344q177 0 243 -4q-34 45 -139 199l-246 362l-643 -909h-501zM836 1464l194 312h268l191 -312h-203l-115 207h-18l-113 -207h-204z" />
<glyph unicode="&#xe3;" d="M23 0l878 1239q110 154 275 154q164 0 270 -154l856 -1239h-1593l256 352h344q177 0 243 -4q-34 45 -139 199l-246 362l-643 -909h-501zM856 1509v170q56 62 158 62q53 0 148.5 -43t148.5 -43q45 0 86 20.5t69 53.5v-168q-54 -62 -155 -62q-52 0 -148 42t-149 42 q-45 0 -87.5 -21t-70.5 -53z" />
<glyph unicode="&#xe4;" d="M23 0l878 1239q110 154 275 154q164 0 270 -154l856 -1239h-1593l256 352h344q177 0 243 -4q-34 45 -139 199l-246 362l-643 -909h-501zM774 1649q0 71 49.5 112t124.5 41q76 0 126 -41t50 -112q0 -69 -50 -109.5t-126 -40.5q-74 0 -124 40.5t-50 109.5zM1200 1649 q0 71 50 112t124 41q76 0 126 -41t50 -112q0 -69 -50 -109.5t-126 -40.5q-73 0 -123.5 41t-50.5 109z" />
<glyph unicode="&#xe5;" d="M23 0l878 1239q110 154 275 154q164 0 270 -154l856 -1239h-1593l256 352h344q177 0 243 -4q-34 45 -139 199l-246 362l-643 -909h-501zM866 1634v129q0 172 211 172h168q213 0 213 -172v-129q0 -170 -213 -170h-168q-211 0 -211 170zM1026 1647q0 -37 39 -37h192 q41 0 41 37v104q0 37 -41 37h-192q-39 0 -39 -37v-104z" />
<glyph unicode="&#xe6;" horiz-adv-x="2953" d="M23 0l862 1214q108 156 272 156h1776l-275 -356h-886v-164h1085l-242 -311h-843v-187h1167l-275 -352h-1316v1014h-109l-715 -1014h-501z" />
<glyph unicode="&#xe7;" horiz-adv-x="1890" d="M86 698q0 197 107 351t294.5 237.5t423.5 83.5h961l-273 -356h-688q-173 0 -287 -93.5t-114 -240.5q0 -145 113 -236.5t288 -91.5h961l-273 -352h-688q-175 0 -328.5 53.5t-262.5 146t-171.5 222t-62.5 276.5zM911 -63h316l-168 -459h-148v459z" />
<glyph unicode="&#xe8;" horiz-adv-x="1736" d="M129 0v1370h1587l-274 -356h-887v-164h1085l-243 -311h-842v-187h1165l-272 -352h-1319zM524 1544v232l611 -142v-170z" />
<glyph unicode="&#xe9;" horiz-adv-x="1736" d="M129 0v1370h1587l-274 -356h-887v-164h1085l-243 -311h-842v-187h1165l-272 -352h-1319zM602 1464v170l610 142v-232z" />
<glyph unicode="&#xea;" horiz-adv-x="1736" d="M129 0v1370h1587l-274 -356h-887v-164h1085l-243 -311h-842v-187h1165l-272 -352h-1319zM561 1464l195 312h268l190 -312h-202l-115 207h-18l-113 -207h-205z" />
<glyph unicode="&#xeb;" horiz-adv-x="1736" d="M129 0v1370h1587l-274 -356h-887v-164h1085l-243 -311h-842v-187h1165l-272 -352h-1319zM473 1649q0 71 49.5 112t124.5 41q76 0 126 -41t50 -112q0 -69 -50 -109.5t-126 -40.5q-74 0 -124 40.5t-50 109.5zM899 1649q0 71 50 112t124 41q76 0 126 -41t50 -112 q0 -69 -50 -109.5t-126 -40.5q-73 0 -123.5 41t-50.5 109z" />
<glyph unicode="&#xec;" horiz-adv-x="694" d="M-14 1544v232l610 -142v-170zM135 0v1370h424v-1370h-424z" />
<glyph unicode="&#xed;" horiz-adv-x="694" d="M102 1464v170l611 142v-232zM135 0v1370h424v-1370h-424z" />
<glyph unicode="&#xee;" horiz-adv-x="694" d="M20 1464l195 312h268l191 -312h-203l-115 207h-18l-113 -207h-205zM135 0v1370h424v-1370h-424z" />
<glyph unicode="&#xef;" horiz-adv-x="694" d="M-39 1649q0 71 49.5 112t124.5 41q76 0 126 -41t50 -112q0 -69 -50 -109.5t-126 -40.5q-74 0 -124 40.5t-50 109.5zM135 0v1370h424v-1370h-424zM387 1649q0 71 50 112t124 41q76 0 126 -41t50 -112q0 -69 -50 -109.5t-126 -40.5q-73 0 -123.5 41t-50.5 109z" />
<glyph unicode="&#xf0;" horiz-adv-x="2131" d="M0 539l242 311h981l-242 -311h-252v-187h492q178 0 291.5 90.5t113.5 237.5q0 144 -116 239t-289 95h-916l268 356h648q237 0 425 -85t294 -238.5t106 -348.5q0 -147 -62.5 -276.5t-171.5 -222t-262.5 -146t-328.5 -53.5h-916v539h-305z" />
<glyph unicode="&#xf1;" horiz-adv-x="1871" d="M123 0v1137q0 128 66 192t165 64q88 0 170 -74l840 -754v805h387v-1134q0 -129 -66.5 -194t-166.5 -65q-90 0 -170 74l-840 754v-805h-385zM623 1509v170q56 62 157 62q53 0 148.5 -43t148.5 -43q45 0 86.5 21t69.5 53v-168q-54 -62 -156 -62q-52 0 -148 42t-149 42 q-45 0 -87 -21t-70 -53z" />
<glyph unicode="&#xf2;" horiz-adv-x="2174" d="M86 686q0 364 247.5 535.5t753.5 171.5q505 0 753.5 -172t248.5 -535t-249 -536t-753 -173q-505 0 -753 172.5t-248 536.5zM508 686q0 -74 12.5 -128.5t43.5 -94t73.5 -64t110.5 -39.5t147.5 -20.5t191.5 -5.5q135 0 225 8.5t162.5 30.5t112 62t60 101t20.5 150 q0 64 -10 112.5t-30 86t-54.5 63.5t-78 43.5t-107 27t-134 13.5t-166.5 4q-112 0 -191 -5.5t-147.5 -20t-111 -39t-73.5 -64t-43.5 -93.5t-12.5 -128zM723 1544v232l610 -142v-170z" />
<glyph unicode="&#xf3;" horiz-adv-x="2174" d="M86 686q0 364 247.5 535.5t753.5 171.5q505 0 753.5 -172t248.5 -535t-249 -536t-753 -173q-505 0 -753 172.5t-248 536.5zM508 686q0 -74 12.5 -128.5t43.5 -94t73.5 -64t110.5 -39.5t147.5 -20.5t191.5 -5.5q135 0 225 8.5t162.5 30.5t112 62t60 101t20.5 150 q0 64 -10 112.5t-30 86t-54.5 63.5t-78 43.5t-107 27t-134 13.5t-166.5 4q-112 0 -191 -5.5t-147.5 -20t-111 -39t-73.5 -64t-43.5 -93.5t-12.5 -128zM840 1464v170l610 142v-232z" />
<glyph unicode="&#xf4;" horiz-adv-x="2174" d="M86 686q0 364 247.5 535.5t753.5 171.5q505 0 753.5 -172t248.5 -535t-249 -536t-753 -173q-505 0 -753 172.5t-248 536.5zM508 686q0 -74 12.5 -128.5t43.5 -94t73.5 -64t110.5 -39.5t147.5 -20.5t191.5 -5.5q135 0 225 8.5t162.5 30.5t112 62t60 101t20.5 150 q0 64 -10 112.5t-30 86t-54.5 63.5t-78 43.5t-107 27t-134 13.5t-166.5 4q-112 0 -191 -5.5t-147.5 -20t-111 -39t-73.5 -64t-43.5 -93.5t-12.5 -128zM760 1464l194 312h269l190 -312h-203l-114 207h-19l-112 -207h-205z" />
<glyph unicode="&#xf5;" horiz-adv-x="2174" d="M86 686q0 364 247.5 535.5t753.5 171.5q505 0 753.5 -172t248.5 -535t-249 -536t-753 -173q-505 0 -753 172.5t-248 536.5zM508 686q0 -74 12.5 -128.5t43.5 -94t73.5 -64t110.5 -39.5t147.5 -20.5t191.5 -5.5q135 0 225 8.5t162.5 30.5t112 62t60 101t20.5 150 q0 64 -10 112.5t-30 86t-54.5 63.5t-78 43.5t-107 27t-134 13.5t-166.5 4q-112 0 -191 -5.5t-147.5 -20t-111 -39t-73.5 -64t-43.5 -93.5t-12.5 -128zM780 1509v170q56 62 158 62q53 0 148.5 -43t148.5 -43q45 0 86.5 21t69.5 53v-168q-54 -62 -156 -62q-52 0 -148 42 t-149 42q-45 0 -87.5 -21t-70.5 -53z" />
<glyph unicode="&#xf6;" horiz-adv-x="2174" d="M86 686q0 364 247.5 535.5t753.5 171.5q505 0 753.5 -172t248.5 -535t-249 -536t-753 -173q-505 0 -753 172.5t-248 536.5zM508 686q0 -74 12.5 -128.5t43.5 -94t73.5 -64t110.5 -39.5t147.5 -20.5t191.5 -5.5q135 0 225 8.5t162.5 30.5t112 62t60 101t20.5 150 q0 64 -10 112.5t-30 86t-54.5 63.5t-78 43.5t-107 27t-134 13.5t-166.5 4q-112 0 -191 -5.5t-147.5 -20t-111 -39t-73.5 -64t-43.5 -93.5t-12.5 -128zM700 1649q0 71 49.5 112t124.5 41q76 0 126.5 -41t50.5 -112q0 -69 -50.5 -109.5t-126.5 -40.5q-74 0 -124 40.5 t-50 109.5zM1126 1649q0 71 50 112t124 41q76 0 126.5 -41t50.5 -112q0 -69 -50.5 -109.5t-126.5 -40.5q-73 0 -123.5 41t-50.5 109z" />
<glyph unicode="&#xf7;" horiz-adv-x="1288" d="M86 582v229h1118v-229h-1118zM414 207q0 93 65.5 147t163.5 54q100 0 165.5 -54t65.5 -147q0 -91 -65.5 -144t-165.5 -53q-99 0 -164 53t-65 144zM414 1171q0 93 65.5 147t163.5 54q100 0 165.5 -54t65.5 -147q0 -91 -65.5 -143.5t-165.5 -52.5q-99 0 -164 52.5 t-65 143.5z" />
<glyph unicode="&#xf8;" horiz-adv-x="2174" d="M86 686q0 364 247.5 535.5t753.5 171.5q333 0 555 -74l154 147l105 -96l-117 -113q305 -173 305 -571q0 -363 -249 -536t-753 -173q-344 0 -559 76l-153 -149l-101 96l117 113q-305 171 -305 573zM508 686q0 -124 38 -196t124 -109l667 645q-117 10 -250 10 q-112 0 -191 -5.5t-147.5 -20t-111 -39t-73.5 -64t-43.5 -93.5t-12.5 -128zM834 344q87 -10 253 -10q135 0 225 8.5t162.5 30.5t112 62t60 101t20.5 150q0 123 -39 194.5t-127 108.5z" />
<glyph unicode="&#xf9;" horiz-adv-x="2019" d="M111 598v772h421v-772q0 -64 13 -106t45 -75.5t92.5 -51t150 -26.5t222.5 -9q164 0 257 27.5t132 84.5t39 156v772h426v-772q0 -621 -854 -621q-489 0 -716.5 153.5t-227.5 467.5zM645 1544v232l610 -142v-170z" />
<glyph unicode="&#xfa;" horiz-adv-x="2019" d="M111 598v772h421v-772q0 -64 13 -106t45 -75.5t92.5 -51t150 -26.5t222.5 -9q164 0 257 27.5t132 84.5t39 156v772h426v-772q0 -621 -854 -621q-489 0 -716.5 153.5t-227.5 467.5zM762 1464v170l610 142v-232z" />
<glyph unicode="&#xfb;" horiz-adv-x="2019" d="M111 598v772h421v-772q0 -64 13 -106t45 -75.5t92.5 -51t150 -26.5t222.5 -9q164 0 257 27.5t132 84.5t39 156v772h426v-772q0 -621 -854 -621q-489 0 -716.5 153.5t-227.5 467.5zM682 1464l195 312h268l190 -312h-202l-115 207h-19l-112 -207h-205z" />
<glyph unicode="&#xfc;" horiz-adv-x="2019" d="M111 598v772h421v-772q0 -64 13 -106t45 -75.5t92.5 -51t150 -26.5t222.5 -9q164 0 257 27.5t132 84.5t39 156v772h426v-772q0 -621 -854 -621q-489 0 -716.5 153.5t-227.5 467.5zM623 1649q0 71 49.5 112t124.5 41q76 0 126 -41t50 -112q0 -69 -50 -109.5t-126 -40.5 q-74 0 -124 40.5t-50 109.5zM1049 1649q0 71 50 112t124 41q76 0 126 -41t50 -112q0 -69 -50 -109.5t-126 -40.5q-73 0 -123.5 41t-50.5 109z" />
<glyph unicode="&#xfd;" horiz-adv-x="2105" d="M16 1370h545l328 -381q6 -7 56 -63t83.5 -95t46.5 -57q35 51 172 217l312 379h532l-813 -917v-453h-426v455zM797 1464v170l610 142v-232z" />
<glyph unicode="&#xfe;" horiz-adv-x="1961" d="M129 0v1370h424v-192h657q317 0 496.5 -137t179.5 -369q0 -231 -179.5 -371.5t-494.5 -140.5h-559l281 356h317q99 0 154 41.5t55 112.5q0 73 -55 116t-154 43h-698v-829h-424z" />
<glyph unicode="&#xff;" horiz-adv-x="2105" d="M16 1370h545l328 -381q6 -7 56 -63t83.5 -95t46.5 -57q35 51 172 217l312 379h532l-813 -917v-453h-426v455zM686 1649q0 71 49.5 112t124.5 41q76 0 126 -41t50 -112q0 -69 -50 -109.5t-126 -40.5q-74 0 -124 40.5t-50 109.5zM1112 1649q0 71 50 112t124 41 q76 0 126 -41t50 -112q0 -69 -50 -109.5t-126 -40.5q-73 0 -123.5 41t-50.5 109z" />
<glyph unicode="&#x152;" horiz-adv-x="3084" d="M86 686q0 364 247.5 535.5t753.5 171.5q232 0 390 -23h1585l-273 -356h-888v-164h1085l-242 -311h-843v-187h1167l-272 -352h-1319q-158 -23 -390 -23q-505 0 -753 172.5t-248 536.5zM508 686q0 -74 12.5 -128.5t43.5 -94t73.5 -64t110.5 -39.5t147.5 -20.5t191.5 -5.5 q269 0 390 39v624q-113 39 -390 39q-112 0 -191 -5.5t-147.5 -20t-111 -39t-73.5 -64t-43.5 -93.5t-12.5 -128z" />
<glyph unicode="&#x153;" horiz-adv-x="3084" d="M86 686q0 364 247.5 535.5t753.5 171.5q232 0 390 -23h1585l-273 -356h-888v-164h1085l-242 -311h-843v-187h1167l-272 -352h-1319q-158 -23 -390 -23q-505 0 -753 172.5t-248 536.5zM508 686q0 -74 12.5 -128.5t43.5 -94t73.5 -64t110.5 -39.5t147.5 -20.5t191.5 -5.5 q269 0 390 39v624q-113 39 -390 39q-112 0 -191 -5.5t-147.5 -20t-111 -39t-73.5 -64t-43.5 -93.5t-12.5 -128z" />
<glyph unicode="&#x178;" horiz-adv-x="2105" d="M16 1370h545l328 -381q6 -7 56 -63t83.5 -95t46.5 -57q35 51 172 217l312 379h532l-813 -917v-453h-426v455zM686 1649q0 71 49.5 112t124.5 41q76 0 126 -41t50 -112q0 -69 -50 -109.5t-126 -40.5q-74 0 -124 40.5t-50 109.5zM1112 1649q0 71 50 112t124 41 q76 0 126 -41t50 -112q0 -69 -50 -109.5t-126 -40.5q-73 0 -123.5 41t-50.5 109z" />
<glyph unicode="&#x2c6;" horiz-adv-x="847" d="M96 1464l195 312h268l191 -312h-203l-115 207h-18l-113 -207h-205z" />
<glyph unicode="&#x2dc;" horiz-adv-x="804" d="M96 1509v170q56 62 158 62q53 0 148.5 -43t148.5 -43q45 0 86.5 21t69.5 53v-168q-54 -62 -156 -62q-52 0 -148 42t-149 42q-45 0 -87.5 -21t-70.5 -53z" />
<glyph unicode="&#x2000;" horiz-adv-x="967" />
<glyph unicode="&#x2001;" horiz-adv-x="1935" />
<glyph unicode="&#x2002;" horiz-adv-x="967" />
<glyph unicode="&#x2003;" horiz-adv-x="1935" />
<glyph unicode="&#x2004;" horiz-adv-x="645" />
<glyph unicode="&#x2005;" horiz-adv-x="483" />
<glyph unicode="&#x2006;" horiz-adv-x="322" />
<glyph unicode="&#x2007;" horiz-adv-x="322" />
<glyph unicode="&#x2008;" horiz-adv-x="241" />
<glyph unicode="&#x2009;" horiz-adv-x="387" />
<glyph unicode="&#x200a;" horiz-adv-x="107" />
<glyph unicode="&#x2010;" horiz-adv-x="950" d="M31 561l207 264h684l-207 -264h-684z" />
<glyph unicode="&#x2011;" horiz-adv-x="950" d="M31 561l207 264h684l-207 -264h-684z" />
<glyph unicode="&#x2012;" horiz-adv-x="950" d="M31 561l207 264h684l-207 -264h-684z" />
<glyph unicode="&#x2013;" horiz-adv-x="1280" d="M31 561l207 264h1013l-207 -264h-1013z" />
<glyph unicode="&#x2014;" horiz-adv-x="2054" d="M31 561l207 264h1790l-207 -264h-1790z" />
<glyph unicode="&#x2018;" horiz-adv-x="448" d="M35 1370h379v-549h-178z" />
<glyph unicode="&#x2019;" horiz-adv-x="448" d="M35 821v549h379l-203 -549h-176z" />
<glyph unicode="&#x201a;" horiz-adv-x="448" d="M35 -197v549h379l-203 -549h-176z" />
<glyph unicode="&#x201c;" horiz-adv-x="913" d="M35 1370h379v-549h-178zM500 1370h379v-549h-177z" />
<glyph unicode="&#x201d;" horiz-adv-x="913" d="M35 821v549h379l-203 -549h-176zM500 821v549h379l-203 -549h-176z" />
<glyph unicode="&#x201e;" horiz-adv-x="913" d="M35 -197v549h379l-203 -549h-176zM500 -197v549h379l-203 -549h-176z" />
<glyph unicode="&#x2022;" horiz-adv-x="937" d="M121 686q0 145 101.5 246.5t246.5 101.5t246.5 -101.5t101.5 -246.5t-101.5 -246.5t-246.5 -101.5t-246.5 101.5t-101.5 246.5z" />
<glyph unicode="&#x2026;" horiz-adv-x="3160" d="M86 174q0 93 65.5 147t163.5 54q100 0 166 -54t66 -147q0 -91 -66 -144t-166 -53q-99 0 -164 53t-65 144zM1350 174q0 93 65.5 147t163.5 54q100 0 165.5 -54t65.5 -147q0 -91 -65.5 -144t-165.5 -53q-99 0 -164 53t-65 144zM2613 174q0 92 65.5 146.5t164.5 54.5 q100 0 165.5 -54t65.5 -147q0 -91 -65.5 -144t-165.5 -53q-99 0 -164.5 53t-65.5 144z" />
<glyph unicode="&#x202f;" horiz-adv-x="387" />
<glyph unicode="&#x2039;" horiz-adv-x="501" d="M59 565v187l357 256v-195l-232 -147l232 -152v-190z" />
<glyph unicode="&#x203a;" horiz-adv-x="501" d="M94 324v190l234 152l-234 147v195l359 -256v-187z" />
<glyph unicode="&#x205f;" horiz-adv-x="483" />
<glyph unicode="&#x20ac;" horiz-adv-x="1820" d="M14 506l92 135h76q-2 18 -2 57q0 31 2 45h-168l92 138h99q68 223 285 356t516 133h768l-277 -356h-491q-103 0 -188 -35t-140 -98h713l-105 -138h-676q-6 -30 -6 -63q0 -27 2 -39h602l-106 -135h-443q51 -73 142 -113.5t205 -40.5h690l-273 -352h-417 q-293 0 -509.5 139.5t-287.5 366.5h-195z" />
<glyph unicode="&#x2122;" horiz-adv-x="1183" d="M70 1247v123h430v-123h-152v-450h-125v450h-153zM563 797v573h115l149 -362l148 362h115v-573h-127v215l-89 -215h-96l-88 213v-213h-127z" />
</font>
</defs>
</svg>
